<svg width="512" height="287" viewBox="0 0 512 287" fill="none" xmlns="http://www.w3.org/2000/svg">
<path d="M31.0899 10C31.0899 10 69.939 17.3153 95.0986 17.3153C120.258 17.3153 159.107 10 159.107 10" stroke="#2D9CDB" stroke-width="10.9729" stroke-linecap="round"/>
<path d="M25.0734 71.2201C38.8356 76.2291 55.2111 71.2976 57.8107 58.8081L58.2099 38.3973C58.3016 33.7065 55.4008 29.4763 50.992 27.8716L33.0824 21.3531C28.6736 19.7484 23.7324 21.1243 20.7874 24.7767L7.97337 40.6688C1.93671 51.9073 11.3112 66.2111 25.0734 71.2201Z" fill="#2D9CDB"/>
<path d="M94.6825 81.5448C109.328 81.5448 123.029 71.3099 121.2 58.6846L114.498 37.7449C113.043 33.2005 108.819 30.1171 104.047 30.1171H85.3178C80.5463 30.1171 76.3218 33.2005 74.8672 37.7449L68.1646 58.6846C66.3358 71.3099 80.0371 81.5448 94.6825 81.5448Z" fill="#2D9CDB"/>
<path d="M163.968 71.2203C177.73 66.2112 187.105 51.9075 181.068 40.669L168.254 24.7768C165.309 21.1245 160.368 19.7486 155.959 21.3532L138.05 27.8718C133.641 29.4765 130.74 33.7066 130.832 38.3975L131.231 58.8083C133.831 71.2978 150.206 76.2293 163.968 71.2203Z" fill="#2D9CDB"/>
<path d="M165.603 106.724H73.2759C45.7569 106.724 23.4483 129.033 23.4483 156.552V215.172C23.4483 242.691 45.7568 265 73.2758 265H165.603" stroke="#2D9CDB" stroke-width="35.1724" stroke-linecap="round"/>
<path d="M96.7241 166.81H90.8621C81.9589 166.81 74.7414 174.027 74.7414 182.931V188.793C74.7414 197.696 81.9589 204.913 90.8621 204.913H96.7241C105.627 204.913 112.845 197.696 112.845 188.793V182.931C112.845 174.027 105.627 166.81 96.7241 166.81Z" stroke="#4F4F4F" stroke-width="8.7931"/>
<path d="M276.754 181.465H288.936C294.475 181.465 298.966 185.956 298.966 191.495V195.617C298.966 201.156 294.475 205.647 288.936 205.647H276.754C271.215 205.647 266.724 201.156 266.724 195.617V191.495C266.724 185.956 271.215 181.465 276.754 181.465Z" stroke="#4F4F4F" stroke-width="8.7931"/>
<path d="M421.84 180H434.022C439.561 180 444.052 184.49 444.052 190.03V194.151C444.052 199.691 439.561 204.181 434.022 204.181H421.84C416.301 204.181 411.81 199.691 411.81 194.151V190.03C411.81 184.49 416.301 180 421.84 180Z" stroke="#4F4F4F" stroke-width="8.7931"/>
<path d="M196.379 166.81H199.31C208.214 166.81 215.431 174.028 215.431 182.931V188.793C215.431 197.696 208.214 204.914 199.31 204.914H196.379C187.476 204.914 180.259 197.696 180.259 188.793V182.931C180.259 174.028 187.476 166.81 196.379 166.81Z" stroke="#4F4F4F" stroke-width="8.7931"/>
<path d="M486.552 166.81H480.69C471.786 166.81 464.569 174.027 464.569 182.931V188.793C464.569 197.696 471.786 204.913 480.69 204.913H486.552C495.455 204.913 502.672 197.696 502.672 188.793V182.931C502.672 174.027 495.455 166.81 486.552 166.81Z" stroke="#4F4F4F" stroke-width="8.7931"/>
<path d="M180.259 166.81V222.591" stroke="#4F4F4F" stroke-width="8.7931" stroke-linecap="round"/>
<path d="M464.569 166.81V222.591" stroke="#4F4F4F" stroke-width="8.7931" stroke-linecap="round"/>
<path d="M269.655 166.81H290.172C295.029 166.81 298.966 170.747 298.966 175.603V194.447C298.966 198.334 300.51 202.061 303.258 204.81L303.362 204.914" stroke="#4F4F4F" stroke-width="8.7931" stroke-linecap="round"/>
<path d="M414.741 165.345H435.259C440.115 165.345 444.052 169.282 444.052 174.138V192.981C444.052 196.868 445.596 200.596 448.344 203.344L448.448 203.448" stroke="#4F4F4F" stroke-width="8.7931" stroke-linecap="round"/>
<path d="M233.017 166.81V204.914" stroke="#4F4F4F" stroke-width="8.7931" stroke-linecap="round"/>
<path d="M234.483 179.644L241.266 172.862C242.473 171.655 243.929 170.726 245.532 170.14L254.644 166.81" stroke="#4F4F4F" stroke-width="8.7931" stroke-linecap="round"/>
<path d="M348.793 166.84H323.879C320.642 166.84 318.017 169.464 318.017 172.702V180C318.017 183.238 320.642 185.862 323.879 185.862H342.931C346.169 185.862 348.793 188.487 348.793 191.724V199.052C348.793 202.289 346.169 204.914 342.931 204.914H318.017" stroke="#4F4F4F" stroke-width="8.7931" stroke-linecap="round"/>
<path d="M365.5 148.931H392.176C397.111 148.931 399.837 154.655 396.728 158.487L366.807 195.358C363.697 199.189 366.424 204.914 371.358 204.914H398.034" stroke="#4F4F4F" stroke-width="8.7931" stroke-linecap="round"/>
<path d="M128.966 204.914V175.603C128.966 170.747 132.902 166.81 137.759 166.81C142.615 166.81 146.552 170.747 146.552 175.603V204.914" stroke="#4F4F4F" stroke-width="8.7931" stroke-linecap="round"/>
<path d="M146.552 204.914V175.603C146.552 170.747 150.489 166.81 155.345 166.81C160.201 166.81 164.138 170.747 164.138 175.603V204.914" stroke="#4F4F4F" stroke-width="8.7931" stroke-linecap="round"/>
</svg>
